<svg xmlns="http://www.w3.org/2000/svg" viewBox="0 0 512 512">
<defs>
<linearGradient id="g" x1="0" y1="0" x2="1" y2="1">
<stop stop-color="#3c1158"/><stop offset=".5" stop-color="#8a3aa1"/><stop offset="1" stop-color="#f06aa3"/>
</linearGradient>
</defs>
<rect width="512" height="512" rx="112" fill="url(#g)"/>
<circle cx="256" cy="238" r="145" fill="#fff7fb"/>
<path d="M168 286c47-14 62-60 66-118 43 30 69 80 103 124-47 30-111 28-169-6z" fill="#f16fa7"/>
<circle cx="222" cy="216" r="14" fill="#6e2a87"/><circle cx="292" cy="216" r="14" fill="#6e2a87"/>
<path d="M220 268c25 19 49 19 73 0" fill="none" stroke="#6e2a87" stroke-width="11" stroke-linecap="round"/>
<path d="M385 86l10 28 28 10-28 10-10 28-10-28-28-10 28-10z" fill="#ffe78f"/>
<path d="M150 86l8 23 23 8-23 8-8 23-8-23-23-8 23-8z" fill="#fff"/>
<text x="256" y="438" text-anchor="middle" font-size="54" font-weight="800" fill="#fff" font-family="sans-serif">光エステ</text>
</svg>